<svg xmlns="http://www.w3.org/2000/svg"  viewBox="0 0 50 50" width="50px" height="50px"><path d="M 24.65625 1 C 24.515625 0.984375 24.359375 1.003906 24.21875 1.03125 C 23.9375 1.085938 23.65625 1.242188 23.46875 1.46875 C 21.289063 4.125 21.230469 6.152344 21.1875 7.78125 C 20.511719 7.492188 19.824219 7.203125 19.21875 6.84375 C 18.199219 6.238281 17.402344 5.503906 17.0625 3.9375 C 16.9375 3.367188 16.386719 2.96875 15.875 2.9375 C 15.363281 2.90625 14.765625 3.28125 14.59375 3.84375 C 13.59375 7.140625 14.324219 9.039063 14.90625 10.5625 C 14.160156 10.554688 13.394531 10.570313 12.6875 10.46875 C 11.515625 10.300781 10.507813 9.910156 9.59375 8.59375 C 9.261719 8.117188 8.609375 7.925781 8.125 8.09375 C 7.640625 8.261719 7.222656 8.851563 7.28125 9.4375 C 7.617188 12.851563 9.003906 14.347656 10.125 15.53125 C 9.441406 15.808594 8.746094 16.074219 8.0625 16.25 C 6.914063 16.546875 5.847656 16.582031 4.5 15.71875 C 4.011719 15.40625 3.351563 15.503906 2.96875 15.84375 C 2.585938 16.183594 2.410156 16.886719 2.6875 17.40625 C 4.316406 20.453125 6.164063 21.273438 7.65625 21.9375 C 7.125 22.457031 6.566406 22.980469 6 23.40625 C 5.050781 24.117188 4.074219 24.566406 2.5 24.28125 C 1.925781 24.179688 1.347656 24.507813 1.125 24.96875 C 0.902344 25.429688 1.011719 26.15625 1.46875 26.53125 C 4.125 28.710938 6.152344 28.769531 7.78125 28.8125 C 7.492188 29.488281 7.203125 30.175781 6.84375 30.78125 C 6.238281 31.800781 5.503906 32.597656 3.9375 32.9375 C 3.367188 33.0625 2.96875 33.613281 2.9375 34.125 C 2.90625 34.636719 3.28125 35.234375 3.84375 35.40625 C 7.140625 36.40625 9.039063 35.675781 10.5625 35.09375 C 10.554688 35.839844 10.570313 36.605469 10.46875 37.3125 C 10.414063 37.6875 10.308594 38.03125 10.1875 38.375 L 1.28125 47.28125 C 0.882813 47.679688 0.882813 48.320313 1.28125 48.71875 C 1.679688 49.117188 2.320313 49.117188 2.71875 48.71875 L 8.84375 42.59375 C 9.03125 42.671875 9.230469 42.738281 9.4375 42.71875 L 9.5625 42.6875 C 12.878906 42.324219 14.367188 40.980469 15.53125 39.875 C 15.808594 40.558594 16.074219 41.253906 16.25 41.9375 C 16.546875 43.085938 16.582031 44.152344 15.71875 45.5 C 15.40625 45.988281 15.503906 46.648438 15.84375 47.03125 C 16.183594 47.414063 16.886719 47.589844 17.40625 47.3125 C 20.453125 45.683594 21.273438 43.835938 21.9375 42.34375 C 22.457031 42.875 22.980469 43.433594 23.40625 44 C 24.117188 44.949219 24.566406 45.925781 24.28125 47.5 C 24.179688 48.074219 24.507813 48.652344 24.96875 48.875 C 25.429688 49.097656 26.15625 48.988281 26.53125 48.53125 C 28.710938 45.875 28.769531 43.847656 28.8125 42.21875 C 29.488281 42.507813 30.175781 42.796875 30.78125 43.15625 C 31.800781 43.761719 32.597656 44.496094 32.9375 46.0625 C 33.0625 46.632813 33.613281 47.03125 34.125 47.0625 C 34.636719 47.09375 35.234375 46.71875 35.40625 46.15625 C 36.40625 42.859375 35.675781 40.960938 35.09375 39.4375 C 35.839844 39.445313 36.605469 39.429688 37.3125 39.53125 C 38.484375 39.699219 39.492188 40.089844 40.40625 41.40625 C 40.738281 41.886719 41.390625 42.074219 41.875 41.90625 C 42.359375 41.738281 42.777344 41.148438 42.71875 40.5625 C 42.382813 37.144531 40.996094 35.652344 39.875 34.46875 C 40.558594 34.191406 41.253906 33.925781 41.9375 33.75 C 43.085938 33.453125 44.152344 33.417969 45.5 34.28125 C 45.988281 34.59375 46.648438 34.496094 47.03125 34.15625 C 47.414063 33.816406 47.589844 33.113281 47.3125 32.59375 C 45.683594 29.546875 43.835938 28.726563 42.34375 28.0625 C 42.875 27.542969 43.433594 27.019531 44 26.59375 C 44.949219 25.882813 45.925781 25.433594 47.5 25.71875 C 48.074219 25.820313 48.652344 25.492188 48.875 25.03125 C 49.097656 24.570313 48.988281 23.84375 48.53125 23.46875 C 45.875 21.289063 43.847656 21.230469 42.21875 21.1875 C 42.507813 20.511719 42.796875 19.824219 43.15625 19.21875 C 43.761719 18.199219 44.496094 17.402344 46.0625 17.0625 C 46.632813 16.9375 47.03125 16.386719 47.0625 15.875 C 47.09375 15.363281 46.71875 14.765625 46.15625 14.59375 C 43.972656 13.933594 41.945313 14.179688 40.46875 14.5625 C 40.429688 14.574219 40.414063 14.582031 40.375 14.59375 C 40.203125 14.351563 39.933594 14.195313 39.636719 14.171875 C 39.34375 14.148438 39.050781 14.257813 38.84375 14.46875 L 37.71875 15.59375 L 37.125 16.15625 L 37.5625 16.84375 C 37.800781 17.207031 38.179688 17.296875 38.34375 17.3125 C 38.507813 17.328125 38.589844 17.292969 38.65625 17.28125 C 38.789063 17.257813 38.859375 17.246094 38.9375 17.21875 C 39.089844 17.164063 39.242188 17.074219 39.4375 17 C 39.824219 16.851563 40.34375 16.664063 40.96875 16.5 C 41.636719 16.328125 42.410156 16.230469 43.25 16.21875 C 42.472656 16.792969 41.859375 17.476563 41.4375 18.1875 C 40.660156 19.5 40.25 20.820313 39.84375 21.5 L 39.65625 21.84375 L 39.71875 22.1875 C 39.710938 22.148438 39.738281 22.171875 39.75 22.25 L 39.875 23 L 40.59375 23.09375 C 42.34375 23.316406 43.644531 22.941406 45.46875 23.84375 C 44.429688 24.058594 43.496094 24.460938 42.78125 25 C 41.5625 25.914063 40.695313 26.996094 40.0625 27.46875 L 39.78125 27.6875 L 39.6875 28.0625 C 39.683594 28.074219 39.660156 28.070313 39.65625 28.09375 L 39.5 28.84375 L 40.15625 29.1875 C 41.695313 30.0625 43.027344 30.253906 44.375 31.8125 C 43.320313 31.605469 42.3125 31.585938 41.4375 31.8125 C 39.960938 32.191406 38.734375 32.835938 37.96875 33.03125 L 37.59375 33.125 L 37.375 33.46875 C 37.371094 33.476563 37.386719 33.484375 37.375 33.5 L 36.9375 34.09375 L 37.375 34.6875 C 38.464844 36.089844 39.664063 36.730469 40.3125 38.6875 C 39.417969 38.09375 38.488281 37.691406 37.59375 37.5625 C 36.085938 37.347656 34.6875 37.488281 33.90625 37.375 L 33.53125 37.34375 L 33.21875 37.53125 C 33.214844 37.53125 33.203125 37.53125 33.15625 37.5625 L 32.5625 37.96875 L 32.75 38.6875 C 33.214844 40.390625 34.042969 41.433594 33.90625 43.46875 C 33.308594 42.59375 32.582031 41.890625 31.8125 41.4375 C 30.5 40.660156 29.179688 40.25 28.5 39.84375 L 28.15625 39.65625 L 27.8125 39.71875 C 27.859375 39.710938 27.808594 39.734375 27.71875 39.75 L 27 39.875 L 26.90625 40.59375 C 26.683594 42.34375 27.058594 43.644531 26.15625 45.46875 C 25.941406 44.429688 25.539063 43.496094 25 42.78125 C 24.085938 41.5625 23.003906 40.695313 22.53125 40.0625 L 22.3125 39.78125 L 21.96875 39.6875 C 21.972656 39.695313 21.957031 39.691406 21.9375 39.6875 C 21.925781 39.683594 21.929688 39.660156 21.90625 39.65625 L 21.15625 39.5 L 20.8125 40.15625 C 19.9375 41.695313 19.746094 43.027344 18.1875 44.375 C 18.394531 43.320313 18.414063 42.3125 18.1875 41.4375 C 17.808594 39.960938 17.164063 38.734375 16.96875 37.96875 L 16.875 37.59375 L 16.5625 37.40625 C 16.566406 37.402344 16.558594 37.394531 16.53125 37.375 C 16.523438 37.371094 16.515625 37.386719 16.5 37.375 L 15.90625 36.9375 L 15.3125 37.375 C 13.910156 38.464844 13.269531 39.664063 11.3125 40.3125 C 11.414063 40.160156 11.503906 40 11.59375 39.84375 L 11.6875 39.75 C 11.886719 39.5625 11.996094 39.304688 12 39.03125 C 12.214844 38.542969 12.367188 38.074219 12.4375 37.59375 C 12.652344 36.085938 12.511719 34.6875 12.625 33.90625 L 12.65625 33.53125 L 12.46875 33.21875 C 12.46875 33.222656 12.460938 33.222656 12.4375 33.1875 C 12.429688 33.175781 12.449219 33.175781 12.4375 33.15625 L 12.03125 32.5625 L 11.3125 32.75 C 9.609375 33.214844 8.566406 34.042969 6.53125 33.90625 C 7.40625 33.308594 8.109375 32.582031 8.5625 31.8125 C 9.339844 30.5 9.75 29.179688 10.15625 28.5 L 10.34375 28.15625 L 10.28125 27.8125 C 10.289063 27.859375 10.265625 27.808594 10.25 27.71875 L 10.125 27 L 9.40625 26.90625 C 7.65625 26.683594 6.355469 27.058594 4.53125 26.15625 C 5.570313 25.941406 6.503906 25.539063 7.21875 25 C 8.4375 24.085938 9.304688 23.003906 9.9375 22.53125 L 10.21875 22.3125 L 10.3125 21.96875 C 10.304688 21.972656 10.308594 21.957031 10.3125 21.9375 C 10.316406 21.925781 10.339844 21.929688 10.34375 21.90625 L 10.5 21.15625 L 9.84375 20.8125 C 8.304688 19.9375 6.972656 19.746094 5.625 18.1875 C 6.679688 18.394531 7.6875 18.414063 8.5625 18.1875 C 10.039063 17.808594 11.265625 17.164063 12.03125 16.96875 L 12.40625 16.875 L 12.59375 16.5625 C 12.589844 16.558594 12.597656 16.539063 12.625 16.5 L 13.0625 15.90625 L 12.625 15.3125 C 11.535156 13.910156 10.335938 13.269531 9.6875 11.3125 C 10.582031 11.90625 11.511719 12.308594 12.40625 12.4375 C 13.914063 12.652344 15.3125 12.511719 16.09375 12.625 L 16.46875 12.65625 L 16.78125 12.46875 C 16.777344 12.46875 16.777344 12.460938 16.8125 12.4375 C 16.824219 12.429688 16.824219 12.449219 16.84375 12.4375 L 17.4375 12.03125 L 17.25 11.3125 C 16.785156 9.609375 15.957031 8.566406 16.09375 6.53125 C 16.691406 7.40625 17.417969 8.109375 18.1875 8.5625 C 19.5 9.339844 20.820313 9.75 21.5 10.15625 L 21.84375 10.34375 L 22.1875 10.28125 C 22.140625 10.289063 22.191406 10.265625 22.28125 10.25 L 23 10.125 L 23.09375 9.40625 C 23.316406 7.65625 22.941406 6.355469 23.84375 4.53125 C 24.058594 5.570313 24.460938 6.503906 25 7.21875 C 25.914063 8.4375 26.996094 9.304688 27.46875 9.9375 L 27.6875 10.21875 L 28.03125 10.3125 C 28.035156 10.320313 28.050781 10.335938 28.09375 10.34375 L 28.84375 10.5 L 29.1875 9.84375 C 30.0625 8.304688 30.253906 6.972656 31.8125 5.625 C 31.605469 6.679688 31.585938 7.6875 31.8125 8.5625 C 32.191406 10.039063 32.835938 11.265625 33.03125 12.03125 L 33.125 12.40625 L 33.46875 12.625 C 33.476563 12.628906 33.484375 12.613281 33.5 12.625 L 34.09375 13.0625 L 34.6875 12.625 C 36.152344 11.488281 36.796875 10.253906 38.96875 9.625 L 29.5 19.0625 C 29.339844 19.019531 29.171875 19 29 19 C 27.894531 19 27 19.894531 27 21 C 27 22.105469 27.894531 23 29 23 C 30.105469 23 31 22.105469 31 21 C 31 20.828125 30.980469 20.660156 30.9375 20.5 L 43.40625 8 L 47 8 C 47.476563 7.992188 47.878906 7.652344 47.96875 7.1875 L 48.96875 2.1875 C 49.03125 1.875 48.9375 1.550781 48.722656 1.316406 C 48.507813 1.082031 48.191406 0.964844 47.875 1 C 47.855469 1.007813 47.832031 1.019531 47.8125 1.03125 L 42.8125 2.03125 C 42.347656 2.121094 42.007813 2.523438 42 3 L 42 6.59375 L 41.15625 7.4375 C 40.980469 7.324219 40.773438 7.269531 40.5625 7.28125 C 37.148438 7.617188 35.652344 9.003906 34.46875 10.125 C 34.191406 9.441406 33.925781 8.746094 33.75 8.0625 C 33.453125 6.914063 33.417969 5.847656 34.28125 4.5 C 34.59375 4.011719 34.496094 3.351563 34.15625 2.96875 C 33.816406 2.585938 33.113281 2.410156 32.59375 2.6875 C 29.546875 4.316406 28.726563 6.164063 28.0625 7.65625 C 27.542969 7.125 27.019531 6.566406 26.59375 6 C 25.882813 5.050781 25.433594 4.074219 25.71875 2.5 C 25.820313 1.925781 25.492188 1.347656 25.03125 1.125 C 24.917969 1.070313 24.796875 1.015625 24.65625 1 Z M 46.75 3.25 L 46.1875 6 L 44 6 L 44 3.8125 Z"/></svg>